<?xml version="1.0"?>
<svg xmlns="http://www.w3.org/2000/svg" xmlns:xlink="http://www.w3.org/1999/xlink" xmlns:svgjs="http://svgjs.com/svgjs" version="1.1" width="512" height="512" x="0" y="0" viewBox="0 0 56 56" style="enable-background:new 0 0 512 512" xml:space="preserve" class=""><g><g xmlns="http://www.w3.org/2000/svg" id="010---Library" transform="translate(-1 -1)"><path id="Rectangle-path" d="m17 31h2v2h-2z" fill="#ff5959" data-original="#000000" style="" class=""/><path id="Rectangle-path" d="m17 39h2v2h-2z" fill="#ff5959" data-original="#000000" style="" class=""/><path id="Rectangle-path" d="m17 48h2v2h-2z" fill="#ff5959" data-original="#000000" style="" class=""/><path id="Rectangle-path" d="m24 31h2v2h-2z" fill="#ff5959" data-original="#000000" style="" class=""/><path id="Rectangle-path" d="m32 39h2v2h-2z" fill="#ff5959" data-original="#000000" style="" class=""/><path id="Rectangle-path" d="m32 31h2v2h-2z" fill="#ff5959" data-original="#000000" style="" class=""/><path id="Rectangle-path" d="m24 39h2v2h-2z" fill="#ff5959" data-original="#000000" style="" class=""/><path id="Rectangle-path" d="m39 48h2v2h-2z" fill="#ff5959" data-original="#000000" style="" class=""/><path id="Shape" d="m3 12h7c0-7.61.08-5.79-.21-6.49-.41145215-1.32272196-1.81727803-2.0614521-3.13999999-1.64999996-1.32272196.41145213-2.06145212 1.81727799-1.65000001 3.13999996.06420669.34799886-.06028869.704018-.32736701.9361707-.26707833.23215269-.63696382.30586461-.97263299.1938293-.75055441-.28466123-1.59858165-.09299518-2.15376126.48678025-.5551796.57977544-.70992743 1.43530985-.3930179 2.17282755.31690954.7375176 1.04406489 1.2141004 1.84677916 1.2103922z" fill="#ff5959" data-original="#000000" style="" class=""/><path id="Rectangle-path" d="m6 43h2v2h-2z" fill="#ff5959" data-original="#000000" style="" class=""/><path id="Rectangle-path" d="m26 48h6v9h-6z" fill="#ff5959" data-original="#000000" style="" class=""/><path id="Shape" d="m12 20.24c4.9291194-2.9015427 11.0349978-2.9397045 16-.1v-16.66c-4.11-3.05-10.08-3.61-16 .07zm2.66-16.18c3.068577-1.17186339 6.4298336-1.33992622 9.6-.48.5152736.15796301.8126769.6958498.6724695 1.21623529-.1402075.5203855-.6675838.83605189-1.1924695.71376471-2.7747248-.75132987-5.7165002-.60073898-8.4.43-.338669.13344592-.723101.07232186-1.0036798-.15958345-.2805788-.23190532-.4129805-.59795709-.3456761-.95569252.0673045-.35773544.3236829-.65064197.6693559-.76472403zm0 5c3.068577-1.17186339 6.4298336-1.33992622 9.6-.48.5152736.15796301.8126769.6958498.6724695 1.21623529-.1402075.52038551-.6675838.83605191-1.1924695.71376471-2.7747248-.75132987-5.7165002-.60073898-8.4.43-.5140008.1696351-1.069673-.1004873-1.2537784-.6094844-.1841053-.50899714.0701922-1.0720873.5737784-1.2705156zm0 5c3.068577-1.1718634 6.4298336-1.3399262 9.6-.48.5152736.157963.8126769.6958498.6724695 1.2162353-.1402075.5203855-.6675838.8360519-1.1924695.7137647-2.7747248-.7513299-5.7165002-.600739-8.4.43-.5140008.1696351-1.069673-.1004873-1.2537784-.6094844-.1841053-.5089971.0701922-1.0720873.5737784-1.2705156z" fill="#ff5959" data-original="#000000" style="" class=""/><path id="Shape" d="m12 39h-9c-.55228475 0-1 .4477153-1 1v17h10zm-2 14c0 1.1045695-.8954305 2-2 2h-2c-1.1045695 0-2-.8954305-2-2v-2c0-1.1045695.8954305-2 2-2h2c1.1045695 0 2 .8954305 2 2zm0-8c0 1.1045695-.8954305 2-2 2h-2c-1.1045695 0-2-.8954305-2-2v-2c0-1.1045695.8954305-2 2-2h2c1.1045695 0 2 .8954305 2 2z" fill="#ff5959" data-original="#000000" style="" class=""/><path id="Rectangle-path" d="m6 51h2v2h-2z" fill="#ff5959" data-original="#000000" style="" class=""/><path id="Shape" d="m20 20v5h2v-4.89c-.6623346-.0933816-1.3314194-.1301812-2-.11z" fill="#ff5959" data-original="#000000" style="" class=""/><path id="Shape" d="m46 20.23c0-1.68 0-1.11 0-1.23 0-17.15 0 18.8 0-15.45-8.21-5.1-14.48-1.19-16-.07v16.65c4.9468184-2.9081621 11.0899187-2.8697677 16 .1zm-12.26-16.65c3.1701664-.85992622 6.531423-.69186339 9.6.48.5035862.1984283.7578837.76151846.5737784 1.27051558-.1841054.50899712-.7397776.77911949-1.2537784.60948442-2.6834998-1.03073898-5.6252752-1.18132987-8.4-.43-.2599849.07976933-.5412447.05021421-.7789694-.08185505s-.4114088-.35526074-.4810306-.61814495c-.069246-.26144771-.0296371-.53979491.1097917-.77154809.1394287-.23175319.3667855-.39714638.6302083-.45845191zm0 5c3.1701664-.85992622 6.531423-.69186339 9.6.48.5035862.1984283.7578837.76151846.5737784 1.2705156-.1841054.5089971-.7397776.7791195-1.2537784.6094844-2.6834998-1.03073898-5.6252752-1.18132987-8.4-.43-.5248857.1222872-1.052262-.1933792-1.1924695-.71376471-.1402074-.52038549.1571959-1.05827228.6724695-1.21623529zm-.74 6.23c-.0704836-.2559398-.0363072-.5294024.0949974-.7601234.1313047-.2307211.3489609-.3997642.6050026-.4698766 3.1701664-.8599262 6.531423-.6918634 9.6.48.4501769.16225.7223188.6206839.6491896 1.093586s-.4710318.827721-.9491896.846414c-.65 0-4-1.79-8.74-.49-.2599849.0797693-.5412447.0502142-.7789694-.0818551-.2377247-.1320692-.4114088-.3552607-.4810306-.6181449z" fill="#ff5959" data-original="#000000" style="" class=""/><path id="Rectangle-path" d="m50 51h2v2h-2z" fill="#ff5959" data-original="#000000" style="" class=""/><path id="Shape" d="m15 27c-.5522847 0-1 .4477153-1 1v29h10v-9c0-1.1045695.8954305-2 2-2h6c1.1045695 0 2 .8954305 2 2v9h10v-29c0-.5522847-.4477153-1-1-1zm6 23c0 1.1045695-.8954305 2-2 2h-2c-1.1045695 0-2-.8954305-2-2v-2c0-1.1045695.8954305-2 2-2h2c1.1045695 0 2 .8954305 2 2zm0-9c0 1.1045695-.8954305 2-2 2h-2c-1.1045695 0-2-.8954305-2-2v-2c0-1.1045695.8954305-2 2-2h2c1.1045695 0 2 .8954305 2 2zm16-10c0-1.1045695.8954305-2 2-2h2c1.1045695 0 2 .8954305 2 2v2c0 1.1045695-.8954305 2-2 2h-2c-1.1045695 0-2-.8954305-2-2zm0 8c0-1.1045695.8954305-2 2-2h2c1.1045695 0 2 .8954305 2 2v2c0 1.1045695-.8954305 2-2 2h-2c-1.1045695 0-2-.8954305-2-2zm0 9c0-1.1045695.8954305-2 2-2h2c1.1045695 0 2 .8954305 2 2v2c0 1.1045695-.8954305 2-2 2h-2c-1.1045695 0-2-.8954305-2-2zm-7-17c0-1.1045695.8954305-2 2-2h2c1.1045695 0 2 .8954305 2 2v2c0 1.1045695-.8954305 2-2 2h-2c-1.1045695 0-2-.8954305-2-2zm0 8c0-1.1045695.8954305-2 2-2h2c1.1045695 0 2 .8954305 2 2v2c0 1.1045695-.8954305 2-2 2h-2c-1.1045695 0-2-.8954305-2-2zm-8-8c0-1.1045695.8954305-2 2-2h2c1.1045695 0 2 .8954305 2 2v2c0 1.1045695-.8954305 2-2 2h-2c-1.1045695 0-2-.8954305-2-2zm0 8c0-1.1045695.8954305-2 2-2h2c1.1045695 0 2 .8954305 2 2v2c0 1.1045695-.8954305 2-2 2h-2c-1.1045695 0-2-.8954305-2-2zm-1-8v2c0 1.1045695-.8954305 2-2 2h-2c-1.1045695 0-2-.8954305-2-2v-2c0-1.1045695.8954305-2 2-2h2c1.1045695 0 2 .8954305 2 2z" fill="#ff5959" data-original="#000000" style="" class=""/><path id="Rectangle-path" d="m50 43h2v2h-2z" fill="#ff5959" data-original="#000000" style="" class=""/><path id="Shape" d="m35 20.31v4.69h2v-5c-.6740864.0478994-1.3430431.1515877-2 .31z" fill="#ff5959" data-original="#000000" style="" class=""/><path id="Shape" d="m57 17c.0126631-.4736615-.3088324-.8911882-.77-1-.3337111-.0760588-.605341-.3175076-.72-.64-.28-.84.49-.94.49-1.88.0018837-.487973-.2337181-.9463645-.6316059-1.2288649-.3978879-.2825004-.9083266-.3537976-1.3683941-.1911351-.4928265.1533023-1.0213618-.0936363-1.22-.57-.401012-.9016874-1.2931754-1.4847239-2.28-1.49-3 0-2.42 3.35-2.5 3.56v4.44h8c.5522847 0 1-.4477153 1-1z" fill="#ff5959" data-original="#000000" style="" class=""/><path id="Shape" d="m56 40c0-.5522847-.4477153-1-1-1h-9v18h10zm-2 13c0 1.1045695-.8954305 2-2 2h-2c-1.1045695 0-2-.8954305-2-2v-2c0-1.1045695.8954305-2 2-2h2c1.1045695 0 2 .8954305 2 2zm0-8c0 1.1045695-.8954305 2-2 2h-2c-1.1045695 0-2-.8954305-2-2v-2c0-1.1045695.8954305-2 2-2h2c1.1045695 0 2 .8954305 2 2z" fill="#ff5959" data-original="#000000" style="" class=""/><path id="Rectangle-path" d="m39 39h2v2h-2z" fill="#ff5959" data-original="#000000" style="" class=""/><path id="Rectangle-path" d="m39 31h2v2h-2z" fill="#ff5959" data-original="#000000" style="" class=""/></g></g></svg>
