<?xml version="1.0"?>
<svg xmlns="http://www.w3.org/2000/svg" xmlns:xlink="http://www.w3.org/1999/xlink" xmlns:svgjs="http://svgjs.com/svgjs" version="1.1" width="512" height="512" x="0" y="0" viewBox="0 0 56 56" style="enable-background:new 0 0 512 512" xml:space="preserve" class=""><g><g xmlns="http://www.w3.org/2000/svg" id="004---Town-Plan"><path id="Shape" d="m28 43c0-1.6568542 1.3431458-3 3-3s3 1.3431458 3 3v4h2v-36.26c0-.51.15-.19-5.16-6.39-.1900027-.22213775-.4676882-.35001923-.76-.35h-3.08c-.5522847 0-1 .44771525-1 1v4h4c.5522847 0 1 .44771525 1 1 0 .5522847-.4477153 1-1 1h-4v2h4c.5522847 0 1 .4477153 1 1s-.4477153 1-1 1h-4v2h4c.5522847 0 1 .4477153 1 1s-.4477153 1-1 1h-4v2h4c.5522847 0 1 .4477153 1 1s-.4477153 1-1 1h-4v2h4c.5522847 0 1 .4477153 1 1s-.4477153 1-1 1h-4v2h4c.5522847 0 1 .4477153 1 1s-.4477153 1-1 1h-4v2h4c.5522847 0 1 .4477153 1 1s-.4477153 1-1 1h-4v2h4c.5522847 0 1 .4477153 1 1s-.4477153 1-1 1h-4v8h2z" fill="#ff5959" data-original="#000000" style="" class=""/><path id="Shape" d="m30 43v4h2v-4c0-.5522847-.4477153-1-1-1s-1 .4477153-1 1z" fill="#ff5959" data-original="#000000" style="" class=""/><path id="Shape" d="m40 43c0-1.6568542 1.3431458-3 3-3s3 1.3431458 3 3v4h2v-19c0-.5522847-.4477153-1-1-1h-8c-.5522847 0-1 .4477153-1 1v19h2zm5-14h1c.5522847 0 1 .4477153 1 1s-.4477153 1-1 1h-1c-.5522847 0-1-.4477153-1-1s.4477153-1 1-1zm0 4h1c.5522847 0 1 .4477153 1 1s-.4477153 1-1 1h-1c-.5522847 0-1-.4477153-1-1s.4477153-1 1-1zm0 4h1c.5522847 0 1 .4477153 1 1s-.4477153 1-1 1h-1c-.5522847 0-1-.4477153-1-1s.4477153-1 1-1zm-5-8h1c.5522847 0 1 .4477153 1 1s-.4477153 1-1 1h-1c-.5522847 0-1-.4477153-1-1s.4477153-1 1-1zm0 4h1c.5522847 0 1 .4477153 1 1s-.4477153 1-1 1h-1c-.5522847 0-1-.4477153-1-1s.4477153-1 1-1zm-1 5c0-.5522847.4477153-1 1-1h1c.5522847 0 1 .4477153 1 1s-.4477153 1-1 1h-1c-.5522847 0-1-.4477153-1-1z" fill="#ff5959" data-original="#000000" style="" class=""/><path id="Shape" d="m42 43v4h2v-4c0-.5522847-.4477153-1-1-1s-1 .4477153-1 1z" fill="#ff5959" data-original="#000000" style="" class=""/><path id="Shape" d="m16 42v-34c0-4.418278-3.581722-8-8-8s-8 3.581722-8 8v34.06c1.87908391-2.5251668 4.83741593-4.0182434 7.98499982-4.0300469 3.14758388-.0118034 6.11703068 1.4590441 8.01500018 3.9700469zm-14-36c0-.55228475.44771525-1 1-1s1 .44771525 1 1v2c0 .55228475-.44771525 1-1 1s-1-.44771525-1-1zm0 6c0-.5522847.44771525-1 1-1s1 .4477153 1 1v23c0 .5522847-.44771525 1-1 1s-1-.4477153-1-1z" fill="#ff5959" data-original="#000000" style="" class=""/><path id="Shape" d="m8 56h47c.5522847 0 1-.4477153 1-1v-40c0-.5522847-.4477153-1-1-1h-17v11.18c.7-.24.06-.18 9-.18 1.6568542 0 3 1.3431458 3 3v19h2c.5522847 0 1 .4477153 1 1s-.4477153 1-1 1h-30c-.5522847 0-1-.4477153-1-1s.4477153-1 1-1h2v-33h-6v34c0 .5522847-.4477153 1-1 1s-1-.4477153-1-1c0-4.418278-3.581722-8-8-8s-8 3.581722-8 8 3.581722 8 8 8zm25-5h20c.5522847 0 1 .4477153 1 1s-.4477153 1-1 1h-20c-.5522847 0-1-.4477153-1-1s.4477153-1 1-1zm-12 0h8c.5522847 0 1 .4477153 1 1s-.4477153 1-1 1h-8c-.5522847 0-1-.4477153-1-1s.4477153-1 1-1z" fill="#ff5959" data-original="#000000" style="" class=""/></g></g></svg>
