<?xml version="1.0"?>
<svg xmlns="http://www.w3.org/2000/svg" xmlns:xlink="http://www.w3.org/1999/xlink" xmlns:svgjs="http://svgjs.com/svgjs" version="1.1" width="512" height="512" x="0" y="0" viewBox="0 0 55 54" style="enable-background:new 0 0 512 512" xml:space="preserve" class=""><g><g xmlns="http://www.w3.org/2000/svg" id="020---Building"><path id="Rectangle-path" d="m32 40h3v2h-3z" fill="#ff5959" data-original="#000000" style="" class=""/><path id="Rectangle-path" d="m23 32h3v2h-3z" fill="#ff5959" data-original="#000000" style="" class=""/><path id="Rectangle-path" d="m23 40h3v2h-3z" fill="#ff5959" data-original="#000000" style="" class=""/><path id="Rectangle-path" d="m23 24h3v2h-3z" fill="#ff5959" data-original="#000000" style="" class=""/><path id="Rectangle-path" d="m32 32h3v2h-3z" fill="#ff5959" data-original="#000000" style="" class=""/><path id="Rectangle-path" d="m23 16h3v2h-3z" fill="#ff5959" data-original="#000000" style="" class=""/><path id="Rectangle-path" d="m32 8h3v2h-3z" fill="#ff5959" data-original="#000000" style="" class=""/><path id="Rectangle-path" d="m32 16h3v2h-3z" fill="#ff5959" data-original="#000000" style="" class=""/><path id="Rectangle-path" d="m32 24h3v2h-3z" fill="#ff5959" data-original="#000000" style="" class=""/><path id="Rectangle-path" d="m23 48h4v5h-4z" fill="#ff5959" data-original="#000000" style="" class=""/><path id="Shape" d="m38 0h-18c-.5522847 0-1 .44771525-1 1v1h3c.5522847 0 1 .44771525 1 1s-.4477153 1-1 1h-3v49h2v-5c0-1.1045695.8954305-2 2-2h4c1.1045695 0 2 .8954305 2 2v5h10v-49h-13c-.5522847 0-1-.44771525-1-1s.4477153-1 1-1h13v-1c0-.55228475-.4477153-1-1-1zm-8 8c0-1.1045695.8954305-2 2-2h3c1.1045695 0 2 .8954305 2 2v2c0 1.1045695-.8954305 2-2 2h-3c-1.1045695 0-2-.8954305-2-2zm0 8c0-1.1045695.8954305-2 2-2h3c1.1045695 0 2 .8954305 2 2v2c0 1.1045695-.8954305 2-2 2h-3c-1.1045695 0-2-.8954305-2-2zm0 8c0-1.1045695.8954305-2 2-2h3c1.1045695 0 2 .8954305 2 2v2c0 1.1045695-.8954305 2-2 2h-3c-1.1045695 0-2-.8954305-2-2zm0 8c0-1.1045695.8954305-2 2-2h3c1.1045695 0 2 .8954305 2 2v2c0 1.1045695-.8954305 2-2 2h-3c-1.1045695 0-2-.8954305-2-2zm0 8c0-1.1045695.8954305-2 2-2h3c1.1045695 0 2 .8954305 2 2v2c0 1.1045695-.8954305 2-2 2h-3c-1.1045695 0-2-.8954305-2-2zm-2 2c0 1.1045695-.8954305 2-2 2h-3c-1.1045695 0-2-.8954305-2-2v-2c0-1.1045695.8954305-2 2-2h3c1.1045695 0 2 .8954305 2 2zm0-8c0 1.1045695-.8954305 2-2 2h-3c-1.1045695 0-2-.8954305-2-2v-2c0-1.1045695.8954305-2 2-2h3c1.1045695 0 2 .8954305 2 2zm0-8c0 1.1045695-.8954305 2-2 2h-3c-1.1045695 0-2-.8954305-2-2v-2c0-1.1045695.8954305-2 2-2h3c1.1045695 0 2 .8954305 2 2zm0-8c0 1.1045695-.8954305 2-2 2h-3c-1.1045695 0-2-.8954305-2-2v-2c0-1.1045695.8954305-2 2-2h3c1.1045695 0 2 .8954305 2 2zm-2-12c1.1045695 0 2 .8954305 2 2v2c0 1.1045695-.8954305 2-2 2h-3c-1.1045695 0-2-.8954305-2-2v-2c0-1.1045695.8954305-2 2-2z" fill="#ff5959" data-original="#000000" style="" class=""/><path id="Rectangle-path" d="m45 48h4v5h-4z" fill="#ff5959" data-original="#000000" style="" class=""/><path id="Shape" d="m47 26h8v-1c0-.5522847-.4477153-1-1-1h-12c-.5522847 0-1 .4477153-1 1v1h2c.5522847 0 1 .4477153 1 1s-.4477153 1-1 1h-2v25h2v-5c0-1.1045695.8954305-2 2-2h4c1.1045695 0 2 .8954305 2 2v5h4v-25h-8c-.5522847 0-1-.4477153-1-1s.4477153-1 1-1zm6 16c0 1.1045695-.8954305 2-2 2h-6c-1.1045695 0-2-.8954305-2-2v-2c0-1.1045695.8954305-2 2-2h6c1.1045695 0 2 .8954305 2 2zm-2-12c1.1045695 0 2 .8954305 2 2v2c0 1.1045695-.8954305 2-2 2h-6c-1.1045695 0-2-.8954305-2-2v-2c0-1.1045695.8954305-2 2-2z" fill="#ff5959" data-original="#000000" style="" class=""/><path id="Rectangle-path" d="m45 32h6v2h-6z" fill="#ff5959" data-original="#000000" style="" class=""/><path id="Rectangle-path" d="m45 40h6v2h-6z" fill="#ff5959" data-original="#000000" style="" class=""/><path id="Rectangle-path" d="m23 8h3v2h-3z" fill="#ff5959" data-original="#000000" style="" class=""/><path id="Shape" d="m2 31h-1c-.55228475 0-1 .4477153-1 1v4c0 .5522847.44771525 1 1 1h1c0 16-.12 15.25.27 15.68s-.02.32 13.73.32c.2606985-.0089591.5093452-.1119699.7-.29.46-.44.3 1.67.3-40.71 0-.5522847-.4477153-1-1-1h-15c-.55228475 0-1 .4477153-1 1v4c0 .5522847.44771525 1 1 1h1zm4.53 12 3-1.83 3 1.83zm5.94 2-3 1.83-2.94-1.83zm-5.94-8h5.94l-3 1.83zm1.06 3-3.59 2.21v-4.42zm0 8-3.59 2.21v-4.42zm-1.06 3 3-1.83 3 1.83zm8.47-.79-3.59-2.21 3.59-2.21zm0-8-3.59-2.21 3.59-2.21zm0-12-3.59-2.21 3.59-2.21zm-8.47-7.21 3-1.83 3 1.83zm5.94 2-3 1.83-2.94-1.83zm-5.94-8h5.94l-3 1.83zm1.06 3-3.59 2.21v-4.42zm0 8-3.59 2.21v-4.42zm1.91 1.17 3 1.83h-5.97zm5.5-7-3.59-2.17 3.59-2.21zm-13-9.17h13v2h-13zm13 20v2h-13v-2z" fill="#ff5959" data-original="#000000" style="" class=""/></g></g></svg>
