<?xml version="1.0"?>
<svg xmlns="http://www.w3.org/2000/svg" xmlns:xlink="http://www.w3.org/1999/xlink" xmlns:svgjs="http://svgjs.com/svgjs" version="1.1" width="512" height="512" x="0" y="0" viewBox="0 0 58 58" style="enable-background:new 0 0 512 512" xml:space="preserve" class=""><g><g xmlns="http://www.w3.org/2000/svg" id="017---Greenbelt" transform="translate(-1 -1)"><path id="Shape" d="m49 27.94v9.06c-3.3684047.5636891-6.7060309 1.2979669-10 2.2v-4.28c-.6621264.1100339-1.3378736.1100339-2 0v4.87c-12.0400287 3.5292261-23.2414511 9.4581903-32.93 17.43-.33318113.2672149-.45987775.7165384-.31537095 1.118448.1445068.4019095.52831599.6676804.95537095.661552h53.29c.5522847 0 1-.4477153 1-1v-21c0-.5522847-.4477153-1-1-1-1.29 0-3.72.22-7 .68v-8.74c-.6642647.0800321-1.3357353.0800321-2 0z" fill="#ff5959" data-original="#000000" style=""/><path id="Shape" d="m2.64 53.23c8.3374999-6.6881871 17.7333996-11.9370476 27.8-15.53.3825195-.1371487.6440073-.492138.6615633-.8981216.0175561-.4059836-.2123112-.7822206-.5815633-.9518784-2.4280634-1.1867704-4.9417935-2.1895883-7.52-3v-6.93c-.6621264.1100339-1.3378736.1100339-2 0v6.35c-3.2708297-.8817531-6.6201457-1.4410889-10-1.67v-11.66c-.6642647.0800321-1.33573526.0800321-2 0v11.55c-2.38587084-.0788619-4.77416139.0415561-7.14.36-.49701626.0702496-.86494008.498068-.86 1v20.61c-.0006314.3882681.22354098.7418059.57499924.9068198s.76666534.1116726 1.06500076-.1368198z" fill="#ff5959" data-original="#000000" style=""/><path id="Shape" d="m6.29 13.71c-.39212215-.3921222-.39212214-1.0278778.00000002-1.42.39212217-.3921221 1.0278778-.3921222 1.41999998 0l1.29 1.3v-5.59c0-.55228475.44771525-1 1-1 .5522847 0 1 .44771525 1 1v1.59l1.29-1.3c.3921222-.39212216 1.0278778-.39212216 1.42.00000001s.3921222 1.02787782 0 1.41999999l-2.71 2.7v6.53c1.5149983-.1603548 2.9623097-.7117115 4.2-1.6-.4653121 1.9158199-.1011551 3.9390378 1.0029668 5.5723767 1.1041219 1.633339 2.8458281 2.7253465 4.7970332 3.0076233v-2.51l-2.71-2.7c-.3921221-.3921222-.3921221-1.0278778 0-1.42.3921222-.3921221 1.0278778-.3921221 1.42 0l1.29 1.3v-2.59c0-.5522847.4477153-1 1-1s1 .4477153 1 1v1.59l1.29-1.3c.2536586-.2536586.623374-.3527235.969878-.259878.3465041.0928454.6171546.3634959.71.71.0928455.346504-.0062194.7162194-.259878.969878l-2.71 2.7v3.51c2.7845954-.41113 5.0520732-2.4501726 5.7554795-5.1756485.7034063-2.725476-.2941013-5.6071646-2.5319474-7.3145147-2.237846-1.7073501-5.2806747-1.9082098-7.7235321-.5098368 1.2509393-3.61273896.0828786-7.62152803-2.9128451-9.99689575-2.9957236-2.37536772-7.16523375-2.5988427-10.39769296-.55728951-3.23245921 2.04155319-4.82231883 5.90252484-3.96470368 9.62827686.85761514 3.7257521 3.97551343 6.5030648 7.77524174 6.9259084v-2.51z" fill="#ff5959" data-original="#000000" style=""/><path id="Shape" d="m34.29 28.71c-.3921221-.3921222-.3921221-1.0278778 0-1.42.3921222-.3921221 1.0278778-.3921221 1.42 0l1.29 1.3v-1.59c0-.5522847.4477153-1 1-1s1 .4477153 1 1v2.59l1.29-1.3c.3921222-.3921221 1.0278778-.3921221 1.42 0 .3921221.3921222.3921221 1.0278778 0 1.42l-2.71 2.7v2.51c1.9512051-.2822768 3.6929113-1.3742843 4.7970332-3.0076233 1.1041219-1.6333389 1.4682789-3.6565568 1.0029668-5.5723767 1.2376903.8882885 2.6850017 1.4396452 4.2 1.6v-6.53l-2.71-2.7c-.3921222-.3921222-.3921222-1.0278778 0-1.42s1.0278778-.3921222 1.42 0l1.29 1.3v-1.59c0-.5522847.4477153-1 1-1s1 .4477153 1 1v5.59l1.29-1.3c.3921222-.3921221 1.0278778-.3921221 1.42 0 .3921221.3921222.3921221 1.0278778 0 1.42l-2.71 2.7v2.53c3.7997283-.4228436 6.9176266-3.2001563 7.7752417-6.9259084.8576152-3.725752-.7322444-7.5867237-3.9647036-9.6282769-3.2324593-2.04155315-7.4019694-1.81807817-10.397693.5572896-2.9957237 2.3753677-4.1637844 6.3841567-2.9128451 9.9968957-2.4428574-1.398373-5.4856861-1.1975133-7.7235321.5098368-2.2378461 1.7073501-3.2353537 4.5890387-2.5319474 7.3145147.7034063 2.7254759 2.9708841 4.7645185 5.7554795 5.1756485v-3.53z" fill="#ff5959" data-original="#000000" style=""/></g></g></svg>
