<?xml version="1.0"?>
<svg xmlns="http://www.w3.org/2000/svg" xmlns:xlink="http://www.w3.org/1999/xlink" xmlns:svgjs="http://svgjs.com/svgjs" version="1.1" width="512" height="512" x="0" y="0" viewBox="0 0 56 56" style="enable-background:new 0 0 512 512" xml:space="preserve" class=""><g><!-- Generator: Sketch 51.3 (57544) - http://www.bohemiancoding.com/sketch --><title xmlns="http://www.w3.org/2000/svg">011 - New House Map</title><desc xmlns="http://www.w3.org/2000/svg">Created with Sketch.</desc><defs xmlns="http://www.w3.org/2000/svg"/><g xmlns="http://www.w3.org/2000/svg" id="Page-1" stroke="none" stroke-width="1" fill="none" fill-rule="evenodd"><g id="011---New-House-Map" fill="#000000" fill-rule="nonzero"><rect id="Rectangle-path" x="29" y="40" width="8" height="12" rx="1" fill="#ff5959" data-original="#000000" style="" class=""/><path d="M19.88,38 L20,38 C21.6568542,38 23,39.3431458 23,41 L23,51 C23,52.6568542 21.6568542,54 20,54 L6,54 C4.34314575,54 3,52.6568542 3,51 L3,41 C3,39.3431458 4.34314575,38 6,38 L6.12,38 C5.785,37.331 5.464,36.661 5.161,36 L0,36 L0,55 C0,55.5522847 0.44771525,56 1,56 L55,56 C55.5522847,56 56,55.5522847 56,55 L56,36 L20.839,36 C20.536,36.661 20.215,37.331 19.88,38 Z M42,41 C42,39.3431458 43.3431458,38 45,38 L50,38 C51.6568542,38 53,39.3431458 53,41 L53,51 C53,52.6568542 51.6568542,54 50,54 L45,54 C43.3431458,54 42,52.6568542 42,51 L42,41 Z M27,41 C27,39.3431458 28.3431458,38 30,38 L36,38 C37.6568542,38 39,39.3431458 39,41 L39,51 C39,52.6568542 37.6568542,54 36,54 L30,54 C28.3431458,54 27,52.6568542 27,51 L27,41 Z" id="Shape" fill="#ff5959" data-original="#000000" style="" class=""/><rect id="Rectangle-path" x="44" y="40" width="7" height="12" rx="1" fill="#ff5959" data-original="#000000" style="" class=""/><path d="M3,29 C2.99934073,26.3799293 4.03079854,23.8650548 5.871,22 L0,22 L0,34 L4.3,34 C3.58048666,32.4211566 3.1406185,30.729356 3,29 Z" id="Shape" fill="#ff5959" data-original="#000000" style="" class=""/><path d="M13.842,48.54 C13.658144,48.8269568 13.3408038,49.0005225 13,49.0005225 C12.6591962,49.0005225 12.341856,48.8269568 12.158,48.54 C11.684,47.801 9.347,44.12 7.158,40 L6,40 C5.44771525,40 5,40.4477153 5,41 L5,51 C5,51.5522847 5.44771525,52 6,52 L20,52 C20.5522847,52 21,51.5522847 21,51 L21,41 C21,40.4477153 20.5522847,40 20,40 L18.847,40 C16.653,44.12 14.316,47.8 13.842,48.54 Z" id="Shape" fill="#ff5959" data-original="#000000" style="" class=""/><rect id="Rectangle-path" x="33" y="4" width="16" height="12" rx="1" fill="#ff5959" data-original="#000000" style="" class=""/><circle id="Oval" cx="13" cy="29" r="4" fill="#ff5959" data-original="#000000" style="" class=""/><path d="M24,19 L24,0 L19,0 L19,2 C19,2.55228475 18.5522847,3 18,3 C17.4477153,3 17,2.55228475 17,2 L17,0 L12,0 L12,19.051 C14.8124062,18.7658268 17.6140024,19.6852655 19.7105166,21.5814672 C21.8070307,23.4776689 23.002256,26.1731736 23,29 C22.8593815,30.729356 22.4195133,32.4211566 21.7,34 L56,34 L56,29 L52,29 C51.4477153,29 51,28.5522847 51,28 C51,27.4477153 51.4477153,27 52,27 L56,27 L56,22 L27,22 C25.3431458,22 24,20.6568542 24,19 Z M19,15 C19,15.5522847 18.5522847,16 18,16 C17.4477153,16 17,15.5522847 17,15 L17,8 C17,7.44771525 17.4477153,7 18,7 C18.5522847,7 19,7.44771525 19,8 L19,15 Z M39,27 L46,27 C46.5522847,27 47,27.4477153 47,28 C47,28.5522847 46.5522847,29 46,29 L39,29 C38.4477153,29 38,28.5522847 38,28 C38,27.4477153 38.4477153,27 39,27 Z M34,28 C34,28.5522847 33.5522847,29 33,29 L26,29 C25.4477153,29 25,28.5522847 25,28 C25,27.4477153 25.4477153,27 26,27 L33,27 C33.5522847,27 34,27.4477153 34,28 Z" id="Shape" fill="#ff5959" data-original="#000000" style="" class=""/><path d="M55,0 L26,0 L26,19 C26,19.5522847 26.4477153,20 27,20 L56,20 L56,1 C56,0.44771525 55.5522847,0 55,0 Z M51,15 C51,16.6568542 49.6568542,18 48,18 L34,18 C32.3431458,18 31,16.6568542 31,15 L31,5 C31,3.34314575 32.3431458,2 34,2 L48,2 C49.6568542,2 51,3.34314575 51,5 L51,15 Z" id="Shape" fill="#ff5959" data-original="#000000" style="" class=""/><path d="M13,21 C8.58377808,21.0049599 5.00495988,24.5837781 5,29 C5.23719472,30.9487747 5.82069796,32.8394877 6.723,34.583 L6.747,34.639 C8.60265684,38.5865104 10.6906512,42.4205663 13,46.121 C15.3091209,42.4197442 17.3971065,38.5850366 19.253,34.637 C19.26,34.619 19.268,34.603 19.276,34.585 C20.1784574,32.8407654 20.7622826,30.9494292 21,29 C20.9950401,24.5837781 17.4162219,21.0049599 13,21 Z M13,35 C9.6862915,35 7,32.3137085 7,29 C7,25.6862915 9.6862915,23 13,23 C16.3137085,23 19,25.6862915 19,29 C18.9966926,32.3123376 16.3123376,34.9966926 13,35 Z" id="Shape" fill="#ff5959" data-original="#000000" style="" class=""/><path d="M10,19.461 L10,0 L1,0 C0.44771525,0 0,0.44771525 0,1 L0,20 L8.67,20 C9.09977781,19.7885458 9.54426761,19.6084104 10,19.461 Z" id="Shape" fill="#ff5959" data-original="#000000" style="" class=""/></g></g></g></svg>
